<svg xmlns="http://www.w3.org/2000/svg" xmlns:xlink="http://www.w3.org/1999/xlink" viewBox="0 0 48 48">
  <defs/>
  <defs>
    <linearGradient id="c">
      <stop offset="0" stop-color="#ff0202"/>
      <stop offset="1" stop-color="#ff9b9b"/>
    </linearGradient>
    <linearGradient id="f">
      <stop offset="0" stop-color="#fff"/>
      <stop offset="1" stop-color="#fff" stop-opacity="0"/>
    </linearGradient>
    <linearGradient id="e">
      <stop offset="0" stop-color="#fff"/>
      <stop offset="1" stop-color="#dbdbdb"/>
    </linearGradient>
    <linearGradient id="d">
      <stop offset="0"/>
      <stop offset="1" stop-opacity="0"/>
    </linearGradient>
    <linearGradient id="b">
      <stop offset="0" stop-color="#c00"/>
      <stop offset="1" stop-color="#b30000"/>
    </linearGradient>
    <linearGradient id="a">
      <stop offset="0" stop-color="#ff8b8b"/>
      <stop offset="1" stop-color="#ec1b1b"/>
    </linearGradient>
    <linearGradient id="i" x1="15.737" x2="53.57" y1="12.504" y2="47.374" gradientTransform="translate(0 -2)" gradientUnits="userSpaceOnUse" xlink:href="#a"/>
    <linearGradient id="h" x1="23.996" x2="41.048" y1="20.105" y2="37.96" gradientTransform="translate(0 -2)" gradientUnits="userSpaceOnUse" xlink:href="#b"/>
    <linearGradient id="l" x1="21.75" x2="24.302" y1="15.802" y2="35.052" gradientTransform="translate(0 -2)" gradientUnits="userSpaceOnUse" xlink:href="#c"/>
    <radialGradient id="g" cx="25.125" cy="36.75" r="15.75" fx="25.125" fy="36.75" gradientTransform="matrix(1 0 0 .59524 0 14.875)" gradientUnits="userSpaceOnUse" xlink:href="#d"/>
    <radialGradient id="k" cx="24.302" cy="33.302" r="12.302" fx="24.302" fy="33.302" gradientTransform="translate(-16.865 -25.111) scale(1.69398)" gradientUnits="userSpaceOnUse" xlink:href="#e"/>
    <radialGradient id="j" cx="16.75" cy="10.666" r="21.25" fx="16.75" fy="10.666" gradientTransform="matrix(4.15496 0 0 3.19872 -52.846 -23.51)" gradientUnits="userSpaceOnUse" xlink:href="#f"/>
  </defs>
  <path style="marker:none" fill="url(#g)" fill-rule="evenodd" d="M40.875 36.75a15.75 9.375 0 11-31.5 0 15.75 9.375 0 1131.5 0z" color="#000" opacity=".631" overflow="visible" transform="matrix(1.1738 0 0 .6 -5.266 19.575)"/>
  <path fill="url(#h)" fill-rule="evenodd" stroke="#860000" d="M15.591.492h17.085l12.822 13.094V31.48L32.849 43.497h-17.43L2.494 30.658V13.464L15.591.492z"/>
  <path fill="none" stroke="url(#i)" d="M16.02 1.5h16.23l12.247 12.423v17.114l-11.858 11.45H15.87L3.51 30.21V13.846L16.02 1.5z" opacity=".813"/>
  <path fill="url(#j)" fill-rule="evenodd" d="M15.688.75L2.75 13.563v17l2.938 2.906c16.762.057 16.477-13.019 39.562-11.875v-7.907L32.562.75H15.689z" opacity=".29"/>
  <path fill="url(#k)" fill-rule="evenodd" stroke="url(#l)" stroke-linecap="round" stroke-linejoin="round" d="M16.767 10.5L12.5 14.767l7.535 7.535-7.535 7.535 4.267 4.268 7.535-7.536 7.535 7.536 4.268-4.268-7.536-7.535 7.536-7.535-4.268-4.267-7.535 7.535-7.535-7.535z"/>
</svg>
