<svg xmlns="http://www.w3.org/2000/svg" xmlns:xlink="http://www.w3.org/1999/xlink" viewBox="0 0 48 48">
  <defs/>
  <defs>
    <linearGradient id="p">
      <stop offset="0" stop-color="#fff"/>
      <stop offset="1" stop-color="#fff" stop-opacity="0"/>
    </linearGradient>
    <linearGradient id="o">
      <stop offset="0" stop-color="#fff"/>
      <stop offset="1" stop-color="#fff" stop-opacity=".495"/>
    </linearGradient>
    <linearGradient id="n">
      <stop offset="0" stop-color="#7d6400"/>
      <stop offset="1" stop-color="#be9700"/>
    </linearGradient>
    <linearGradient id="m">
      <stop offset="0" stop-color="#fff7b0"/>
      <stop offset=".21" stop-color="#ffec41"/>
      <stop offset=".84" stop-color="#e2cc00"/>
      <stop offset="1" stop-color="#c3af00"/>
    </linearGradient>
    <linearGradient id="l">
      <stop offset="0" stop-color="#6f716d"/>
      <stop offset="1" stop-color="#9ea09c"/>
    </linearGradient>
    <linearGradient id="k">
      <stop offset="0" stop-color="#cad0c6"/>
      <stop offset=".5" stop-color="#eaece9"/>
      <stop offset="1" stop-color="#c5cbc0"/>
    </linearGradient>
    <linearGradient id="j">
      <stop offset="0" stop-color="#fff"/>
      <stop offset="1" stop-color="#fff" stop-opacity="0"/>
    </linearGradient>
    <linearGradient id="i">
      <stop offset="0" stop-color="#7b7f7a"/>
      <stop offset="1" stop-color="#7b7f7a" stop-opacity="0"/>
    </linearGradient>
    <linearGradient id="g">
      <stop offset="0" stop-color="#909090"/>
      <stop offset="1" stop-color="#bebebe" stop-opacity="0"/>
    </linearGradient>
    <linearGradient id="f">
      <stop offset="0" stop-color="#585956"/>
      <stop offset="1" stop-color="#bbbeb8"/>
    </linearGradient>
    <linearGradient id="e">
      <stop offset="0"/>
      <stop offset="1" stop-opacity="0"/>
    </linearGradient>
    <linearGradient id="d">
      <stop offset="0" stop-color="#5b5b97"/>
      <stop offset="1" stop-color="#1b1b43"/>
    </linearGradient>
    <linearGradient id="c">
      <stop offset="0" stop-color="#fff"/>
      <stop offset="1" stop-color="#fcfcff" stop-opacity="0"/>
    </linearGradient>
    <linearGradient id="q">
      <stop offset="0"/>
      <stop offset="1" stop-opacity="0"/>
    </linearGradient>
    <linearGradient id="b">
      <stop offset="0" stop-color="#fff"/>
      <stop offset="1" stop-color="#fff" stop-opacity="0"/>
    </linearGradient>
    <linearGradient id="h">
      <stop offset="0" stop-color="#8f8f8f"/>
      <stop offset="1" stop-color="#494949"/>
    </linearGradient>
    <linearGradient id="a">
      <stop offset="0" stop-color="#dde1d9"/>
      <stop offset="1" stop-color="#cacdc6"/>
    </linearGradient>
    <linearGradient id="v" x1="8.612" x2="34.784" y1="7.229" y2="33.34" gradientTransform="matrix(1.12986 0 0 .88506 2.875 1.57)" gradientUnits="userSpaceOnUse" xlink:href="#a"/>
    <linearGradient id="z" x1="17.698" x2="34.975" y1="13.005" y2="55.201" gradientTransform="matrix(1.10807 0 0 .90247 5.5 3.875)" gradientUnits="userSpaceOnUse" xlink:href="#b"/>
    <linearGradient id="A" x1="11.492" x2="17.199" y1="1.654" y2="26.729" gradientTransform="matrix(1.23898 0 0 .89595 5.09 1.543)" gradientUnits="userSpaceOnUse" xlink:href="#c"/>
    <linearGradient id="x" x1="19.15" x2="16.316" y1="32.622" y2="8.867" gradientTransform="matrix(1.17414 0 0 .94543 5.222 1.543)" gradientUnits="userSpaceOnUse" xlink:href="#d"/>
    <linearGradient id="y" x1="3.707" x2="3.707" y1="171.291" y2="162.451" gradientTransform="matrix(5.70516 0 0 .17528 5.5 2.196)" gradientUnits="userSpaceOnUse" xlink:href="#e"/>
    <linearGradient id="u" x1="12.207" x2="12.128" y1="53.535" y2="64.893" gradientTransform="matrix(1.81635 0 0 1.27893 2.5 -40.245)" gradientUnits="userSpaceOnUse" xlink:href="#f"/>
    <linearGradient id="B" x1="34.301" x2="35.521" y1="3.938" y2="3.845" gradientUnits="userSpaceOnUse" xlink:href="#g"/>
    <linearGradient id="C" x1="34.301" x2="35.521" y1="3.938" y2="3.845" gradientUnits="userSpaceOnUse" xlink:href="#g"/>
    <linearGradient id="D" x1="34.301" x2="35.521" y1="3.938" y2="3.845" gradientUnits="userSpaceOnUse" xlink:href="#g"/>
    <linearGradient id="E" x1="34.301" x2="35.521" y1="3.938" y2="3.845" gradientUnits="userSpaceOnUse" xlink:href="#g"/>
    <linearGradient id="F" x1="34.301" x2="35.521" y1="3.938" y2="3.845" gradientUnits="userSpaceOnUse" xlink:href="#g"/>
    <linearGradient id="w" x1="10.391" x2="32.537" y1="5.382" y2="31.246" gradientTransform="matrix(1.1044 0 0 .90547 4.5 2.875)" gradientUnits="userSpaceOnUse" xlink:href="#h"/>
    <linearGradient id="s" x1="-35.658" x2="-35.658" y1="33.416" y2="28.206" gradientUnits="userSpaceOnUse" xlink:href="#i"/>
    <linearGradient id="t" x1="-35.123" x2="-35.075" y1="34.242" y2="30.962" gradientUnits="userSpaceOnUse" xlink:href="#j"/>
    <linearGradient id="G" x1="12.887" x2="20.087" y1="4.36" y2="18.414" gradientTransform="matrix(.48025 0 0 .49732 29.227 23.012)" gradientUnits="userSpaceOnUse" xlink:href="#k"/>
    <linearGradient id="H" x1="19.251" x2="16.198" y1="9.664" y2="6.04" gradientTransform="matrix(.48025 0 0 .49732 29.227 23.012)" gradientUnits="userSpaceOnUse" xlink:href="#l"/>
    <linearGradient id="I" x1="6.727" x2="40.938" y1="32.162" y2="32.162" gradientTransform="matrix(.49024 0 0 .5343 29.283 21.676)" gradientUnits="userSpaceOnUse" xlink:href="#m"/>
    <linearGradient id="J" x1="31.63" x2="8.671" y1="41.792" y2="25.794" gradientTransform="matrix(.49024 0 0 .5343 29.283 22.226)" gradientUnits="userSpaceOnUse" xlink:href="#n"/>
    <linearGradient id="K" x1="10.907" x2="30.875" y1="25.002" y2="36.127" gradientTransform="matrix(.45344 0 0 .47003 30.172 24.39)" gradientUnits="userSpaceOnUse" xlink:href="#o"/>
    <linearGradient id="L" x1="14.218" x2="17.859" y1="6.88" y2="3.957" gradientTransform="matrix(.98047 0 0 .4618 23.89 23.479)" gradientUnits="userSpaceOnUse" xlink:href="#p"/>
    <linearGradient id="M" x1="11.5" x2="11.779" y1="20.58" y2="14.26" gradientTransform="matrix(.98047 0 0 .49024 34.675 22.834)" gradientUnits="userSpaceOnUse" xlink:href="#p"/>
    <radialGradient id="r" cx="12.576" cy="67.502" r="8.766" fx="12.576" fy="67.502" gradientTransform="scale(1.9258 .51926)" gradientUnits="userSpaceOnUse" xlink:href="#q"/>
  </defs>
  <path fill="url(#r)" fill-rule="evenodd" d="M41.1 35.051a16.882 4.552 0 11-33.764 0 16.882 4.552 0 1133.765 0z" color="#000" opacity=".509" overflow="visible" style="marker:none" transform="matrix(1.05025 0 0 1.86789 -.946 -28.106)"/>
  <path fill="#adb0aa" fill-rule="evenodd" stroke="#4b4d4a" d="M33.77 37.795a9.394 3.94 0 11-18.79 0 9.394 3.94 0 1118.79 0z" color="#000" overflow="visible" style="marker:none"/>
  <path fill="none" stroke="url(#s)" stroke-width="1.157" d="M-26.264 29.716a9.394 3.94 0 11-18.789 0 9.394 3.94 0 1118.789 0z" color="#000" overflow="visible" style="marker:none" transform="matrix(.90237 0 0 .82765 56.552 12.868)"/>
  <path fill="none" stroke="url(#t)" stroke-width="1.183" d="M-26.264 29.716a9.394 3.94 0 11-18.789 0 9.394 3.94 0 1118.789 0z" color="#000" overflow="visible" style="marker:none" transform="matrix(.83755 0 0 .85266 54.178 11.006)"/>
  <path fill="url(#u)" fill-rule="evenodd" d="M19.972 31.079h9.04v6.365h-9.04z" color="#000" overflow="visible" style="marker:none"/>
  <path fill="url(#v)" fill-rule="evenodd" stroke="url(#w)" d="M7.58 4.57h33.59c.91 0 1.623.584 1.666 1.402l1.332 25.578c.058 1.118-.901 2.02-2.02 2.02H6.602c-1.119 0-2.078-.902-2.02-2.02L5.914 5.972c.04-.773.548-1.401 1.667-1.401z" color="#000" overflow="visible" style="marker:none"/>
  <path fill="url(#x)" fill-rule="evenodd" stroke="#000079" stroke-linejoin="round" stroke-width=".5" d="M8.91 7.18L7.669 29.227h31.65L37.985 7.274 8.91 7.181z"/>
  <path fill="none" stroke="url(#y)" stroke-linecap="round" stroke-opacity=".248" stroke-width=".996" d="M6.677 31.61h35.429"/>
  <path fill="none" stroke="url(#z)" stroke-opacity=".701" d="M7.415 5.581l33.845-.037c.284 0 .56.237.582.652L43.204 31c.058 1.057-.54 1.786-1.598 1.786H7.082c-1.059 0-1.593-.729-1.536-1.786L6.87 6.505c.039-.716.166-.923.545-.924z" color="#000" overflow="visible" style="marker:none"/>
  <path fill="url(#A)" fill-rule="evenodd" d="M9.212 7.621l-.803 17.87C19.454 23.092 23.83 15 37.563 12.346l-.161-4.658-28.19-.066z" opacity=".531"/>
  <path fill="url(#B)" fill-rule="evenodd" d="M35.62 3.938a.84.84 0 11-1.679 0 .84.84 0 111.68 0z" color="#000" overflow="visible" style="marker:none" transform="matrix(1.33124 0 0 .65845 -5.92 5.729)"/>
  <path fill="url(#C)" fill-rule="evenodd" d="M35.62 3.938a.84.84 0 11-1.679 0 .84.84 0 111.68 0z" color="#000" overflow="visible" style="marker:none" transform="matrix(1.33124 0 0 .65845 -5.806 7.835)"/>
  <path fill="url(#D)" fill-rule="evenodd" d="M35.62 3.938a.84.84 0 11-1.679 0 .84.84 0 111.68 0z" color="#000" overflow="visible" style="marker:none" transform="matrix(1.33124 0 0 .65845 -5.692 9.835)"/>
  <path fill="url(#E)" fill-rule="evenodd" d="M35.62 3.938a.84.84 0 11-1.679 0 .84.84 0 111.68 0z" color="#000" overflow="visible" style="marker:none" transform="matrix(1.33124 0 0 .65845 -5.579 11.835)"/>
  <path fill="url(#F)" fill-rule="evenodd" d="M35.62 3.938a.84.84 0 11-1.679 0 .84.84 0 111.68 0z" color="#000" overflow="visible" style="marker:none" transform="matrix(1.33124 0 0 .65845 -5.465 13.835)"/>
  <path fill="#4a4a4a" d="M22.5 30.193h.282c.083 0 .148.018.192.056.045.037.068.09.068.158 0 .07-.023.123-.068.16a.295.295 0 01-.192.056h-.112v.228h-.17v-.658m.17.123v.184h.094a.111.111 0 00.076-.024.087.087 0 00.027-.069c0-.029-.01-.052-.027-.068a.111.111 0 00-.076-.023h-.094m.792-.012a.141.141 0 00-.12.057.265.265 0 00-.043.161c0 .07.014.123.043.161a.141.141 0 00.12.058c.052 0 .092-.02.12-.058a.265.265 0 00.044-.16.265.265 0 00-.043-.162.142.142 0 00-.121-.057m0-.123c.106 0 .189.03.249.09.06.061.09.145.09.251a.34.34 0 01-.09.25.334.334 0 01-.249.092.335.335 0 01-.249-.091.34.34 0 01-.09-.25c0-.107.03-.19.09-.251s.143-.091.249-.091m.466.012h.19l.24.451v-.451h.16v.658h-.19l-.239-.452v.452h-.16v-.658m.662 0h.186l.15.234.15-.234h.186l-.25.38v.278h-.17v-.277l-.252-.381" font-family="Bitstream Vera Sans" font-size=".903" font-weight="700"/>
  <g transform="translate(-10.4 -12.364) scale(.84422)">
    <path fill="url(#G)" fill-rule="evenodd" stroke="url(#H)" stroke-width="1.185" d="M34.239 34.181V30.36c0-3.914 2.623-5.699 6.524-5.65 3.922.049 6.511 1.752 6.511 5.712l-.006 3.76h-2.393v-2.776c-.065-.963.267-4.19-4.085-4.19-4.381 0-4.124 3.239-4.108 4.21v2.755h-2.443z"/>
    <rect width="17.156" height="11.769" x="32.468" y="34.232" fill="url(#I)" fill-rule="evenodd" stroke="url(#J)" stroke-linecap="round" stroke-linejoin="round" stroke-width="1.185" rx="2.647" ry="2.303"/>
    <rect width="14.978" height="9.439" x="33.56" y="35.387" fill="none" stroke="url(#K)" stroke-linecap="round" stroke-linejoin="round" stroke-opacity=".601" stroke-width="1.185" rx="1.439" ry="1.439"/>
    <path fill="url(#L)" fill-rule="evenodd" d="M34.675 30.572c.13-2.899.936-5.081 6.31-5.266-3.48.49-5.372 1.506-5.372 4.536l-.087 3.756h-.85v-3.026z"/>
    <rect width=".98" height="4.902" x="45.46" y="28.717" fill="url(#M)" fill-rule="evenodd" rx="0" ry="0"/>
  </g>
</svg>
